<mxfile host="www.draw.io" modified="2019-11-07T02:28:53.275Z" agent="Mozilla/5.0 (Windows NT 6.1; Win64; x64) AppleWebKit/537.36 (KHTML, like Gecko) Chrome/74.0.3729.169 Safari/537.36" etag="E05QYJGjQ1P-yySAJRPk" version="12.2.2" type="github" pages="1">
  <diagram id="eJ1FH0AteHl50KE7in9Z" name="第 1 页">
    <mxGraphModel dx="964" dy="628" grid="1" gridSize="10" guides="1" tooltips="1" connect="1" arrows="1" fold="1" page="1" pageScale="1" pageWidth="827" pageHeight="1169" math="0" shadow="0">
      <root>
        <mxCell id="0"/>
        <mxCell id="1" parent="0"/>
        <mxCell id="yVsy5xH8C9tNAxVsHMCo-1" value="省平台" style="shape=cylinder;whiteSpace=wrap;html=1;boundedLbl=1;backgroundOutline=1;" parent="1" vertex="1">
          <mxGeometry x="310" y="70" width="210" height="80" as="geometry"/>
        </mxCell>
        <mxCell id="yVsy5xH8C9tNAxVsHMCo-2" value="省平台对外标准&lt;br&gt;数据接口" style="rounded=1;whiteSpace=wrap;html=1;" parent="1" vertex="1">
          <mxGeometry x="70" y="230" width="120" height="60" as="geometry"/>
        </mxCell>
        <mxCell id="yVsy5xH8C9tNAxVsHMCo-3" value="省平台硬件标准接口" style="rounded=1;whiteSpace=wrap;html=1;" parent="1" vertex="1">
          <mxGeometry x="355" y="230" width="120" height="60" as="geometry"/>
        </mxCell>
        <mxCell id="yVsy5xH8C9tNAxVsHMCo-4" value="银行数据专线" style="rounded=1;whiteSpace=wrap;html=1;" parent="1" vertex="1">
          <mxGeometry x="650" y="230" width="120" height="60" as="geometry"/>
        </mxCell>
        <mxCell id="yVsy5xH8C9tNAxVsHMCo-5" value="项目信息" style="rounded=1;whiteSpace=wrap;html=1;" parent="1" vertex="1">
          <mxGeometry x="10" y="390" width="60" height="110" as="geometry"/>
        </mxCell>
        <mxCell id="yVsy5xH8C9tNAxVsHMCo-6" value="人员实名制信息" style="rounded=1;whiteSpace=wrap;html=1;" parent="1" vertex="1">
          <mxGeometry x="80" y="390" width="60" height="110" as="geometry"/>
        </mxCell>
        <mxCell id="yVsy5xH8C9tNAxVsHMCo-7" value="考勤信息" style="rounded=1;whiteSpace=wrap;html=1;" parent="1" vertex="1">
          <mxGeometry x="150" y="390" width="60" height="110" as="geometry"/>
        </mxCell>
        <mxCell id="yVsy5xH8C9tNAxVsHMCo-8" value="银行代发信息" style="rounded=1;whiteSpace=wrap;html=1;" parent="1" vertex="1">
          <mxGeometry x="220" y="390" width="60" height="110" as="geometry"/>
        </mxCell>
        <mxCell id="yVsy5xH8C9tNAxVsHMCo-9" value="交互服务器设置" style="rounded=1;whiteSpace=wrap;html=1;" parent="1" vertex="1">
          <mxGeometry x="320" y="390" width="60" height="110" as="geometry"/>
        </mxCell>
        <mxCell id="yVsy5xH8C9tNAxVsHMCo-10" value="设备绑定" style="rounded=1;whiteSpace=wrap;html=1;" parent="1" vertex="1">
          <mxGeometry x="390" y="390" width="60" height="110" as="geometry"/>
        </mxCell>
        <mxCell id="yVsy5xH8C9tNAxVsHMCo-11" value="设备对应组织框架" style="rounded=1;whiteSpace=wrap;html=1;" parent="1" vertex="1">
          <mxGeometry x="460" y="390" width="60" height="110" as="geometry"/>
        </mxCell>
        <mxCell id="yVsy5xH8C9tNAxVsHMCo-12" value="考勤信息" style="rounded=1;whiteSpace=wrap;html=1;" parent="1" vertex="1">
          <mxGeometry x="530" y="390" width="60" height="110" as="geometry"/>
        </mxCell>
        <mxCell id="yVsy5xH8C9tNAxVsHMCo-13" value="省银行" style="rounded=1;whiteSpace=wrap;html=1;" parent="1" vertex="1">
          <mxGeometry x="650" y="415" width="120" height="60" as="geometry"/>
        </mxCell>
        <mxCell id="yVsy5xH8C9tNAxVsHMCo-14" value="州/市监察系统" style="rounded=1;whiteSpace=wrap;html=1;" parent="1" vertex="1">
          <mxGeometry x="10" y="540" width="120" height="60" as="geometry"/>
        </mxCell>
        <mxCell id="yVsy5xH8C9tNAxVsHMCo-15" value="州/市住建系统" style="rounded=1;whiteSpace=wrap;html=1;" parent="1" vertex="1">
          <mxGeometry x="160" y="540" width="120" height="60" as="geometry"/>
        </mxCell>
        <mxCell id="yVsy5xH8C9tNAxVsHMCo-16" value="各厂商考勤设备&lt;br&gt;通过VPN专网连接" style="rounded=1;whiteSpace=wrap;html=1;" parent="1" vertex="1">
          <mxGeometry x="360" y="540" width="120" height="60" as="geometry"/>
        </mxCell>
        <mxCell id="yVsy5xH8C9tNAxVsHMCo-17" value="各州/市银行" style="rounded=1;whiteSpace=wrap;html=1;" parent="1" vertex="1">
          <mxGeometry x="650" y="540" width="120" height="60" as="geometry"/>
        </mxCell>
        <mxCell id="yVsy5xH8C9tNAxVsHMCo-18" value="州/市&lt;br&gt;监察&lt;br&gt;系统1" style="rounded=1;whiteSpace=wrap;html=1;" parent="1" vertex="1">
          <mxGeometry y="640" width="60" height="110" as="geometry"/>
        </mxCell>
        <mxCell id="yVsy5xH8C9tNAxVsHMCo-19" value="州/市&lt;br&gt;监察&lt;br&gt;系统N" style="rounded=1;whiteSpace=wrap;html=1;" parent="1" vertex="1">
          <mxGeometry x="75" y="640" width="60" height="110" as="geometry"/>
        </mxCell>
        <mxCell id="yVsy5xH8C9tNAxVsHMCo-20" value="州/市&lt;br&gt;住建&lt;br&gt;系统1" style="rounded=1;whiteSpace=wrap;html=1;" parent="1" vertex="1">
          <mxGeometry x="145" y="640" width="60" height="110" as="geometry"/>
        </mxCell>
        <mxCell id="yVsy5xH8C9tNAxVsHMCo-21" value="州/市&lt;br&gt;住建&lt;br&gt;系统N" style="rounded=1;whiteSpace=wrap;html=1;" parent="1" vertex="1">
          <mxGeometry x="215" y="640" width="60" height="110" as="geometry"/>
        </mxCell>
        <mxCell id="yVsy5xH8C9tNAxVsHMCo-22" value="宇泛智能" style="rounded=1;whiteSpace=wrap;html=1;" parent="1" vertex="1">
          <mxGeometry x="315" y="640" width="60" height="110" as="geometry"/>
        </mxCell>
        <mxCell id="yVsy5xH8C9tNAxVsHMCo-23" value="中控智慧" style="rounded=1;whiteSpace=wrap;html=1;" parent="1" vertex="1">
          <mxGeometry x="385" y="640" width="60" height="110" as="geometry"/>
        </mxCell>
        <mxCell id="yVsy5xH8C9tNAxVsHMCo-24" value="思源科安" style="rounded=1;whiteSpace=wrap;html=1;" parent="1" vertex="1">
          <mxGeometry x="455" y="640" width="60" height="110" as="geometry"/>
        </mxCell>
        <mxCell id="yVsy5xH8C9tNAxVsHMCo-25" value="其它厂商" style="rounded=1;whiteSpace=wrap;html=1;" parent="1" vertex="1">
          <mxGeometry x="525" y="640" width="60" height="110" as="geometry"/>
        </mxCell>
        <mxCell id="yVsy5xH8C9tNAxVsHMCo-26" value="工商" style="rounded=1;whiteSpace=wrap;html=1;" parent="1" vertex="1">
          <mxGeometry x="610" y="640" width="60" height="110" as="geometry"/>
        </mxCell>
        <mxCell id="yVsy5xH8C9tNAxVsHMCo-27" value="建设" style="rounded=1;whiteSpace=wrap;html=1;" parent="1" vertex="1">
          <mxGeometry x="680" y="640" width="60" height="110" as="geometry"/>
        </mxCell>
        <mxCell id="yVsy5xH8C9tNAxVsHMCo-28" value="农业" style="rounded=1;whiteSpace=wrap;html=1;" parent="1" vertex="1">
          <mxGeometry x="750" y="640" width="60" height="110" as="geometry"/>
        </mxCell>
        <mxCell id="yVsy5xH8C9tNAxVsHMCo-29" value="邮储" style="rounded=1;whiteSpace=wrap;html=1;" parent="1" vertex="1">
          <mxGeometry x="820" y="640" width="60" height="110" as="geometry"/>
        </mxCell>
      </root>
    </mxGraphModel>
  </diagram>
</mxfile>
